<svg width="20" height="20" viewBox="0 0 20 20" fill="none" xmlns="http://www.w3.org/2000/svg">
<path d="M10 4.59998V15.4M12.7 7.74998C12.7 6.50798 11.4913 5.49998 10 5.49998C8.50875 5.49998 7.30005 6.50798 7.30005 7.74998C7.30005 8.99198 8.50875 9.99998 10 9.99998C11.4913 9.99998 12.7 11.008 12.7 12.25C12.7 13.492 11.4913 14.5 10 14.5C8.50875 14.5 7.30005 13.492 7.30005 12.25" stroke="#ABA5A2" stroke-width="1.5" stroke-linecap="round"/>
<path d="M5.5 2.20421C6.86757 1.41302 8.42006 0.997576 10 1.00001C14.9707 1.00001 19 5.02931 19 10C19 14.9707 14.9707 19 10 19C5.0293 19 1 14.9707 1 10C1 8.36111 1.4383 6.82301 2.2042 5.50001" stroke="#ABA5A2" stroke-width="1.5" stroke-linecap="round"/>
</svg>
