<svg width="22" height="18" viewBox="0 0 22 18" fill="none" xmlns="http://www.w3.org/2000/svg">
<path d="M18.5625 0C19.4742 0 20.3485 0.364697 20.9932 1.01386C21.6378 1.66303 22 2.54348 22 3.46154V14.5385C22 15.4565 21.6378 16.337 20.9932 16.9861C20.3485 17.6353 19.4742 18 18.5625 18H3.4375C2.52582 18 1.65148 17.6353 1.00682 16.9861C0.362164 16.337 0 15.4565 0 14.5385V3.46154C0 2.54348 0.362164 1.66303 1.00682 1.01386C1.65148 0.364697 2.52582 0 3.4375 0H18.5625ZM20.625 5.48446L11.3492 10.9814C11.2616 11.0332 11.1635 11.0648 11.0622 11.0739C10.961 11.083 10.8589 11.0694 10.7635 11.034L10.6508 10.9814L1.375 5.48723V14.5385C1.375 15.0893 1.5923 15.6176 1.97909 16.0071C2.36589 16.3966 2.89049 16.6154 3.4375 16.6154H18.5625C19.1095 16.6154 19.6341 16.3966 20.0209 16.0071C20.4077 15.6176 20.625 15.0893 20.625 14.5385V5.48446ZM18.5625 1.38462H3.4375C2.89049 1.38462 2.36589 1.60343 1.97909 1.99293C1.5923 2.38243 1.375 2.9107 1.375 3.46154V3.87969L11 9.58154L20.625 3.87692V3.46154C20.625 2.9107 20.4077 2.38243 20.0209 1.99293C19.6341 1.60343 19.1095 1.38462 18.5625 1.38462Z" fill="#ABA5A2"/>
</svg>
