<svg width="22" height="18" viewBox="0 0 22 18" fill="none" xmlns="http://www.w3.org/2000/svg">
<path d="M21.212 2.65599C20.4489 2.99359 19.6396 3.21536 18.811 3.31399C19.6841 2.79112 20.3373 1.96873 20.649 0.999988C19.829 1.48799 18.93 1.82999 17.994 2.01499C17.3646 1.34157 16.5304 0.894951 15.621 0.744572C14.7116 0.594194 13.7779 0.748479 12.9653 1.18344C12.1526 1.6184 11.5064 2.30967 11.1271 3.14978C10.7478 3.98989 10.6568 4.93177 10.868 5.82899C9.20494 5.74578 7.57797 5.31371 6.09274 4.56085C4.60752 3.80799 3.29724 2.75116 2.247 1.45899C1.87529 2.09744 1.67996 2.82321 1.681 3.56199C1.681 5.01199 2.42 6.29299 3.541 7.04299C2.87702 7.02205 2.22765 6.84273 1.647 6.51999V6.57099C1.64697 7.53686 1.98104 8.47301 2.59253 9.22066C3.20403 9.96831 4.05532 10.4814 5.002 10.673C4.38564 10.8402 3.7393 10.8648 3.112 10.745C3.37893 11.5764 3.89922 12.3035 4.6 12.8244C5.30078 13.3453 6.14696 13.634 7.02 13.65C6.15236 14.3314 5.15889 14.8352 4.09641 15.1324C3.03393 15.4295 1.92329 15.5144 0.828003 15.382C2.73972 16.6114 4.96511 17.2641 7.238 17.262C14.932 17.262 19.138 10.889 19.138 5.36199C19.138 5.18199 19.134 4.99999 19.126 4.82099C19.9444 4.22935 20.6508 3.49555 21.212 2.65599Z" fill="#ABA5A2"/>
</svg>
