<svg width="34" height="34" viewBox="0 0 34 34" fill="none" xmlns="http://www.w3.org/2000/svg">
<g filter="url(#filter0_d_5_299)">
<circle cx="17" cy="13" r="13" fill="#C84044"/>
</g>
<path d="M17 8.90158L16.6484 9.23499C16.6939 9.28153 16.7485 9.31855 16.809 9.34384C16.8694 9.36912 16.9344 9.38215 17 9.38215C17.0656 9.38215 17.1306 9.36912 17.191 9.34384C17.2515 9.31855 17.3061 9.28153 17.3516 9.23499L17 8.90158ZM15.3239 17.1227C14.3367 16.3565 13.2578 15.6082 12.4015 14.6593C11.5628 13.7283 10.9767 12.6422 10.9767 11.2335H10C10 12.9429 10.7228 14.247 11.6715 15.2979C12.6027 16.3302 13.7904 17.1573 14.719 17.878L15.3246 17.1227H15.3239ZM10.9767 11.2335C10.9767 9.855 11.7679 8.69833 12.8482 8.21169C13.8979 7.73914 15.3083 7.86417 16.6484 9.23499L17.3516 8.56882C15.7628 6.94217 13.9161 6.67352 12.4419 7.33713C11.0002 7.98664 10 9.49467 10 11.2335H10.9767ZM14.719 17.878C15.053 18.137 15.4112 18.4127 15.7739 18.6217C16.1366 18.8301 16.5507 19 17 19V18.0382C16.7981 18.0382 16.5611 17.9613 16.2668 17.7914C15.9718 17.6221 15.6664 17.3887 15.3239 17.1227L14.719 17.878ZM19.281 17.878C20.2096 17.1566 21.3973 16.3308 22.3285 15.2979C23.2772 14.2464 24 12.9429 24 11.2335H23.0233C23.0233 12.6422 22.4372 13.7283 21.5985 14.6593C20.7422 15.6082 19.6633 16.3565 18.6761 17.1227L19.281 17.878ZM24 11.2335C24 9.49467 23.0005 7.98664 21.5581 7.33713C20.0839 6.67352 18.2385 6.94217 16.6484 8.56818L17.3516 9.23499C18.6917 7.86481 20.1021 7.73914 21.1518 8.21169C22.2321 8.69833 23.0233 9.85436 23.0233 11.2335H24ZM18.6761 17.1227C18.3336 17.3887 18.0282 17.6221 17.7332 17.7914C17.4389 17.9607 17.2019 18.0382 17 18.0382V19C17.4493 19 17.8634 18.8301 18.2261 18.6217C18.5895 18.4127 18.947 18.137 19.281 17.878L18.6761 17.1227Z" fill="white"/>
<path d="M18.5 8L17 9L15 7.5H13L11 9.5L10.5 12L13 16L17 18.5L22 15L23.5 12.5L23 9L20.5 7.5L18.5 8Z" fill="white"/>
<defs>
<filter id="filter0_d_5_299" x="0" y="0" width="34" height="34" filterUnits="userSpaceOnUse" color-interpolation-filters="sRGB">
<feFlood flood-opacity="0" result="BackgroundImageFix"/>
<feColorMatrix in="SourceAlpha" type="matrix" values="0 0 0 0 0 0 0 0 0 0 0 0 0 0 0 0 0 0 127 0" result="hardAlpha"/>
<feOffset dy="4"/>
<feGaussianBlur stdDeviation="2"/>
<feComposite in2="hardAlpha" operator="out"/>
<feColorMatrix type="matrix" values="0 0 0 0 0 0 0 0 0 0 0 0 0 0 0 0 0 0 0.25 0"/>
<feBlend mode="normal" in2="BackgroundImageFix" result="effect1_dropShadow_5_299"/>
<feBlend mode="normal" in="SourceGraphic" in2="effect1_dropShadow_5_299" result="shape"/>
</filter>
</defs>
</svg>
