<svg width="8" height="10" viewBox="0 0 8 10" fill="none" xmlns="http://www.w3.org/2000/svg">
<path d="M6.83 4.6C6.715 4.45 6.575 4.32 6.445 4.19C6.11 3.89 5.73 3.675 5.41 3.36C4.665 2.63 4.5 1.425 4.975 0.5C4.5 0.615 4.085 0.875 3.73 1.16C2.435 2.2 1.925 4.035 2.535 5.61C2.555 5.66 2.575 5.71 2.575 5.775C2.575 5.885 2.5 5.985 2.4 6.025C2.285 6.075 2.165 6.045 2.07 5.965C2.04145 5.9414 2.01769 5.91254 2 5.88C1.435 5.165 1.345 4.14 1.725 3.32C0.890002 4 0.435002 5.15 0.500002 6.235C0.530002 6.485 0.560002 6.735 0.645002 6.985C0.715002 7.285 0.850002 7.585 1 7.85C1.54 8.715 2.475 9.335 3.48 9.46C4.55 9.595 5.695 9.4 6.515 8.66C7.43 7.83 7.75 6.5 7.28 5.36L7.215 5.23C7.11 5 6.83 4.6 6.83 4.6ZM5.25 7.75C5.11 7.87 4.88 8 4.7 8.05C4.14 8.25 3.58 7.97 3.25 7.64C3.845 7.5 4.2 7.06 4.305 6.615C4.39 6.215 4.23 5.885 4.165 5.5C4.105 5.13 4.115 4.815 4.25 4.47C4.345 4.66 4.445 4.85 4.565 5C4.95 5.5 5.555 5.72 5.685 6.4C5.705 6.47 5.715 6.54 5.715 6.615C5.73 7.025 5.55 7.475 5.25 7.75Z" fill="#494949"/>
</svg>
