<svg width="25" height="29" viewBox="0 0 25 29" fill="none" xmlns="http://www.w3.org/2000/svg">
<path d="M21.3383 21.3505L14.5403 28.154C14.2724 28.4222 13.9544 28.635 13.6043 28.7801C13.2542 28.9253 12.8789 29 12.5 29C12.121 29 11.7458 28.9253 11.3957 28.7801C11.0456 28.635 10.7275 28.4222 10.4596 28.154L3.66164 21.3505C2.50084 20.1893 1.58003 18.8106 0.951764 17.2933C0.323499 15.7759 8.93165e-05 14.1496 1.84974e-08 12.5073C-8.92795e-05 10.8649 0.323143 9.23854 0.951243 7.72114C1.57934 6.20374 2.50001 4.82498 3.66068 3.66357C4.82134 2.50217 6.19928 1.58086 7.71581 0.952266C9.23234 0.32367 10.8578 8.93392e-05 12.4993 1.8497e-08C14.1408 -8.93022e-05 15.7663 0.323314 17.2829 0.951746C18.7995 1.58018 20.1775 2.50133 21.3383 3.66261C22.4992 4.82396 23.4201 6.20273 24.0483 7.72019C24.6766 9.23765 25 10.8641 25 12.5066C25 14.1491 24.6766 15.7755 24.0483 17.293C23.4201 18.8104 22.4992 20.1892 21.3383 21.3505ZM19.2999 5.70404C17.4964 3.89964 15.0504 2.88402 12.5 2.88402C9.94951 2.88402 7.50351 3.89772 5.70007 5.70212C3.89662 7.50652 2.88346 9.95381 2.88346 12.5056C2.88346 15.0574 3.89662 17.5047 5.70007 19.3091L12.5 26.1107L19.2999 19.311C20.193 18.4177 20.9015 17.357 21.3848 16.1897C21.8682 15.0223 22.117 13.7711 22.117 12.5075C22.117 11.244 21.8682 9.99277 21.3848 8.82541C20.9015 7.65805 20.193 6.5974 19.2999 5.70404ZM12.5 16.3557C11.9878 16.3673 11.4785 16.2763 11.0019 16.0883C10.5253 15.9002 10.0911 15.6188 9.72468 15.2605C9.3583 14.9022 9.06716 14.4743 8.86834 14.0019C8.66953 13.5295 8.56705 13.0221 8.56692 12.5095C8.56679 11.9969 8.66902 11.4895 8.8676 11.0169C9.06617 10.5444 9.3571 10.1164 9.7233 9.7579C10.0895 9.39943 10.5236 9.11778 11.0001 8.92947C11.4766 8.74116 11.9859 8.65 12.498 8.66133C13.503 8.68356 14.4592 9.09852 15.1622 9.81738C15.8651 10.5362 16.2589 11.5019 16.2591 12.5076C16.2594 13.5132 15.8661 14.4791 15.1635 15.1983C14.4609 15.9175 13.5049 16.3329 12.5 16.3557Z" fill="#C84044"/>
</svg>
