<svg width="12" height="12" viewBox="0 0 12 12" fill="none" xmlns="http://www.w3.org/2000/svg">
<path d="M5.88664 0.578918C6.07025 0.578918 6.24634 0.651858 6.37618 0.781691C6.50601 0.911523 6.57895 1.08761 6.57895 1.27123V5.1943H10.502C10.6856 5.1943 10.8617 5.26724 10.9916 5.39707C11.1214 5.52691 11.1943 5.703 11.1943 5.88661C11.1943 6.07022 11.1214 6.24631 10.9916 6.37615C10.8617 6.50598 10.6856 6.57892 10.502 6.57892H6.57895V10.502C6.57895 10.6856 6.50601 10.8617 6.37618 10.9915C6.24634 11.1214 6.07025 11.1943 5.88664 11.1943C5.70303 11.1943 5.52694 11.1214 5.39711 10.9915C5.26727 10.8617 5.19433 10.6856 5.19433 10.502V6.57892H1.27126C1.08765 6.57892 0.911554 6.50598 0.781721 6.37615C0.651888 6.24631 0.578949 6.07022 0.578949 5.88661C0.578949 5.703 0.651888 5.52691 0.781721 5.39707C0.911554 5.26724 1.08765 5.1943 1.27126 5.1943H5.19433V1.27123C5.19433 1.08761 5.26727 0.911523 5.39711 0.781691C5.52694 0.651858 5.70303 0.578918 5.88664 0.578918Z" fill="white"/>
</svg>
